<svg width="16" height="16" viewBox="0 0 16 16" fill="none" xmlns="http://www.w3.org/2000/svg">
<path fill-rule="evenodd" clip-rule="evenodd" d="M7.3385 1.30059C7.60286 1.30059 7.81742 1.51514 7.81742 1.7795C7.81742 2.04386 7.60286 2.25842 7.3385 2.25842H4.95095C3.30092 2.25842 2.23518 3.38866 2.23518 5.13766V10.4466C2.23518 12.1956 3.30092 13.3258 4.95095 13.3258H10.5855C12.2356 13.3258 13.302 12.1956 13.302 10.4466V7.8745C13.302 7.61014 13.5165 7.39559 13.7809 7.39559C14.0452 7.39559 14.2598 7.61014 14.2598 7.8745V10.4466C14.2598 12.7416 12.7828 14.2837 10.5855 14.2837H4.95095C2.75368 14.2837 1.27734 12.7416 1.27734 10.4466V5.13766C1.27734 2.8427 2.75368 1.30059 4.95095 1.30059H7.3385ZM12.9001 1.86162L13.6772 2.63874C14.0558 3.01677 14.264 3.51931 14.2634 4.05442C14.2634 4.58952 14.0552 5.09143 13.6772 5.46881L8.88227 10.2637C8.53043 10.6156 8.06173 10.8097 7.56365 10.8097H5.17163C5.04264 10.8097 4.91876 10.7573 4.82873 10.6647C4.73869 10.5728 4.68952 10.4483 4.69271 10.3186L4.75274 7.90554C4.76487 7.42534 4.95835 6.97389 5.29806 6.63354H5.2987L10.0706 1.86162C10.8509 1.08258 12.1197 1.08258 12.9001 1.86162ZM9.67752 3.60871L5.97557 7.31104C5.81018 7.47643 5.71632 7.69609 5.71057 7.92916L5.66268 9.85185H7.56365C7.8063 9.85185 8.03363 9.75798 8.2054 9.58621L11.9297 5.86089L9.67752 3.60871ZM10.7475 2.53913L10.3544 2.9312L12.6066 5.18402L13.0003 4.79131C13.197 4.59463 13.3055 4.33283 13.3055 4.05442C13.3055 3.77537 13.197 3.51292 13.0003 3.31625L12.2232 2.53913C11.8164 2.13364 11.1549 2.13364 10.7475 2.53913Z" fill="black"/>
</svg>
