<svg width="185" height="178" viewBox="0 0 185 178" fill="none" xmlns="http://www.w3.org/2000/svg">
<g opacity="0.5">
<path d="M13.7081 83.3879L113.97 25.991L13.7081 83.3879Z" fill="white"/>
<path d="M13.7081 83.3879L113.97 25.991" stroke="#D7E1F6" stroke-width="26.0618" stroke-linecap="round"/>
</g>
<g opacity="0.5">
<path d="M37.5558 121.033L137.818 63.6365L37.5558 121.033Z" fill="white"/>
<path d="M37.5558 121.033L137.818 63.6365" stroke="#D7E1F6" stroke-width="26.0618" stroke-linecap="round"/>
</g>
<g opacity="0.5">
<path d="M163.501 49.213L171.315 44.6808L163.501 49.213Z" fill="white"/>
<path d="M163.501 49.213L171.315 44.6808" stroke="#D7E1F6" stroke-width="26.0618" stroke-linecap="round"/>
</g>
<g opacity="0.5">
<path d="M72.9283 152.004L149.073 107.69L72.9283 152.004Z" fill="white"/>
<path d="M72.9283 152.004L149.073 107.69" stroke="#D7E1F6" stroke-width="26.0618" stroke-linecap="round"/>
</g>
<path d="M167.655 112.071C168.898 112.227 169.824 113.317 169.72 114.504C169.615 115.69 168.521 116.527 167.278 116.371C166.035 116.215 165.11 115.125 165.214 113.938C165.318 112.752 166.412 111.915 167.655 112.071Z" stroke="#25AD25" stroke-width="1.21327"/>
<path d="M38.0101 157.169C40.0548 157.426 41.576 159.218 41.4049 161.169C41.2338 163.12 39.4348 164.496 37.3902 164.239C35.3455 163.982 33.8244 162.19 33.9954 160.239C34.1665 158.288 35.9655 156.913 38.0101 157.169Z" stroke="#25AD25" stroke-width="1.99513"/>
<path d="M89.2368 7.96877C91.2815 8.22539 92.8027 10.0177 92.6316 11.9686C92.4605 13.9195 90.6615 15.2952 88.6169 15.0385C86.5722 14.7819 85.051 12.9896 85.2221 11.0387C85.3932 9.08776 87.1922 7.71214 89.2368 7.96877Z" stroke="#25AD25" stroke-width="1.99513"/>
<path d="M4.66903 55.2884C5.59017 55.2884 6.33807 56.0336 6.33807 56.9513C6.33807 57.8691 5.59017 58.6143 4.66903 58.6143C3.74789 58.6143 3 57.8691 3 56.9513C3 56.0336 3.74789 55.2884 4.66903 55.2884Z" stroke="#25AD25" stroke-width="1.45836"/>
<path d="M134.302 163.733C135.223 163.733 135.971 164.478 135.971 165.396C135.971 166.313 135.223 167.059 134.302 167.059C133.381 167.059 132.633 166.313 132.633 165.396C132.633 164.478 133.381 163.733 134.302 163.733Z" stroke="#8B82A7" stroke-width="1.45836"/>
<path d="M153.262 7.34363L155.33 0.994849" stroke="#8B82A7" stroke-width="0.849715"/>
<path d="M151.215 3.18713L157.587 5.24755" stroke="#8B82A7" stroke-width="0.849715"/>
<path d="M11.3521 116.31L13.1962 109.893" stroke="#8B82A7" stroke-width="0.849715"/>
<path d="M9.16064 112.227L15.6009 114.065" stroke="#8B82A7" stroke-width="0.849715"/>
<path d="M150.596 145.189L152.1 138.685" stroke="#8B82A7" stroke-width="0.849715"/>
<path d="M148.192 141.226L154.72 142.725" stroke="#8B82A7" stroke-width="0.849715"/>
<path d="M90.527 35.8997C117.11 35.8997 138.694 57.4047 138.694 83.8913C138.694 110.378 117.11 131.883 90.527 131.883C63.9437 131.883 42.3601 110.378 42.3601 83.8913C42.3601 57.4047 63.9437 35.8997 90.527 35.8997Z" fill="#001540"/>
<path d="M90.4968 40.4386C114.566 40.4386 134.108 59.9097 134.108 83.8911C134.108 107.873 114.566 127.344 90.4968 127.344C66.4277 127.344 46.8855 107.873 46.8855 83.8911C46.8855 59.9097 66.4277 40.4386 90.4968 40.4386Z" fill="white"/>
<path d="M70.8016 85.4848L82.5921 96.9654L110.193 69.4654" stroke="#25AD25" stroke-width="5.09829"/>
</svg>
