<svg width="118" height="129" viewBox="0 0 118 129" fill="none" xmlns="http://www.w3.org/2000/svg">
<g id="Group">
<path id="Vector" opacity="0.1" d="M58.7922 129.001C91.2623 129.001 117.584 102.679 117.584 70.2083C117.584 37.7382 91.2623 11.416 58.7922 11.416C26.3222 11.416 0 37.7382 0 70.2083C0 102.679 26.3222 129.001 58.7922 129.001Z" fill="#979797"/>
<path id="Vector_2" d="M39.373 33.2772C39.3402 33.2772 39.3081 33.2681 39.2801 33.251C39.2521 33.2339 39.2293 33.2094 39.2143 33.1802C39.1992 33.1511 39.1925 33.1183 39.1948 33.0856C39.1971 33.0529 39.2083 33.0214 39.2273 32.9946C39.2602 32.9477 42.4969 28.2688 38.8838 24.0033C38.2442 23.2442 37.4464 22.6343 36.5462 22.2161C35.646 21.798 34.6652 21.5818 33.6726 21.5827H33.625C33.9681 22.7747 33.9069 23.8344 33.421 24.6474C33.214 25.0148 32.9085 25.3171 32.5389 25.5203C32.1693 25.7234 31.7503 25.8193 31.3292 25.7971C30.9806 25.7686 30.648 25.639 30.3719 25.4242C30.0959 25.2095 29.8885 24.9189 29.7752 24.588C29.3778 23.5515 29.7931 22.5465 30.8874 21.8988C31.5808 21.5164 32.3513 21.2949 33.1418 21.2505C32.8847 20.5686 32.5504 19.9184 32.1453 19.3125C30.8407 17.3201 28.4629 15.941 25.6216 15.5286C23.2139 15.1791 20.9063 15.5906 19.7421 16.5766C19.7059 16.6073 19.659 16.6223 19.6116 16.6184C19.5643 16.6145 19.5204 16.592 19.4897 16.5557C19.459 16.5195 19.444 16.4725 19.4479 16.4252C19.4518 16.3779 19.4744 16.334 19.5106 16.3033C20.7496 15.2539 23.1684 14.8103 25.673 15.1742C28.616 15.6013 31.0841 17.0382 32.445 19.1164C32.8863 19.7754 33.2452 20.486 33.5138 21.2323C34.5843 21.2065 35.647 21.4213 36.6235 21.8608C37.6 22.3003 38.4655 22.9532 39.1562 23.7716C42.9516 28.2519 39.5534 33.1528 39.5186 33.2017C39.5021 33.2249 39.4803 33.2439 39.455 33.2571C39.4297 33.2702 39.4016 33.2771 39.373 33.2772ZM33.2581 21.5965C32.4915 21.629 31.7428 21.8379 31.0703 22.2072C30.1254 22.7664 29.7755 23.5875 30.1099 24.46C30.2004 24.7273 30.367 24.9625 30.5891 25.1366C30.8112 25.3108 31.0793 25.4164 31.3606 25.4406C31.7146 25.4564 32.0661 25.3735 32.3758 25.201C32.6854 25.0285 32.941 24.7733 33.1139 24.4639C33.5605 23.7171 33.6015 22.7247 33.2581 21.5965Z" fill="#292A2E"/>
<path id="Vector_3" d="M16.6511 19.4663C16.3471 19.5573 16.0196 19.5261 15.7383 19.3793C15.457 19.2325 15.2441 18.9816 15.1449 18.6802C15.0458 18.3787 15.0683 18.0505 15.2075 17.7653C15.3468 17.4802 15.5919 17.2607 15.8906 17.1535C16.1893 17.0464 16.518 17.0601 16.8067 17.1917C17.0955 17.3233 17.3215 17.5624 17.4366 17.8582C17.5516 18.1539 17.5467 18.4829 17.4229 18.775C17.299 19.0672 17.066 19.2995 16.7734 19.4224C16.7335 19.4392 16.6927 19.4538 16.6511 19.4663ZM16.0557 17.4755C16.0267 17.4843 15.9981 17.4946 15.9701 17.5063C15.7638 17.5931 15.5996 17.757 15.5124 17.9631C15.4252 18.1692 15.4219 18.4012 15.5032 18.6097C15.5846 18.8182 15.7441 18.9867 15.9478 19.0794C16.1515 19.172 16.3834 19.1814 16.594 19.1057C16.8045 19.0299 16.9772 18.8749 17.0752 18.6737C17.1732 18.4725 17.1888 18.241 17.1186 18.0285C17.0484 17.816 16.8981 17.6392 16.6995 17.536C16.501 17.4327 16.27 17.411 16.0557 17.4755Z" fill="#292A2E"/>
<path id="Vector_4" d="M16.649 16.6582C16.3611 16.7441 16.0516 16.7206 15.7801 16.5921C15.5085 16.4636 15.294 16.2393 15.1778 15.9623C15.0847 15.7402 15.0594 15.4955 15.1053 15.259C15.1513 15.0226 15.2662 14.8051 15.4358 14.634C15.6053 14.4629 15.8218 14.346 16.0578 14.2979C16.2938 14.2499 16.5388 14.2729 16.7617 14.364C16.9846 14.4552 17.1755 14.6105 17.3102 14.8101C17.4449 15.0098 17.5174 15.2449 17.5185 15.4858C17.5195 15.7266 17.4491 15.9624 17.3162 16.1632C17.1833 16.3641 16.9938 16.521 16.7716 16.6142C16.7315 16.6309 16.6906 16.6456 16.649 16.6582ZM16.0543 14.6679C16.025 14.6767 15.9961 14.6871 15.9679 14.6989C15.7578 14.7871 15.5913 14.9552 15.5051 15.1661C15.4188 15.377 15.4198 15.6135 15.5079 15.8237C15.5721 15.9769 15.6794 16.1082 15.8167 16.2017C15.954 16.2952 16.1154 16.3469 16.2815 16.3506C16.4476 16.3543 16.6111 16.3098 16.7524 16.2225C16.8938 16.1352 17.0067 16.0088 17.0777 15.8586C17.1487 15.7084 17.1747 15.5409 17.1524 15.3763C17.1302 15.2116 17.0607 15.057 16.9525 14.931C16.8442 14.805 16.7017 14.7131 16.5423 14.6664C16.3829 14.6197 16.2134 14.6201 16.0543 14.6678V14.6679Z" fill="#292A2E"/>
<path id="Vector_5" d="M16.3013 17.9258C17.1808 17.9258 17.8937 17.4497 17.8937 16.8623C17.8937 16.2749 17.1808 15.7988 16.3013 15.7988C15.4219 15.7988 14.709 16.2749 14.709 16.8623C14.709 17.4497 15.4219 17.9258 16.3013 17.9258Z" fill="white"/>
<path id="Vector_6" d="M17.0064 18.0037C16.7781 18.0713 16.5412 18.1053 16.3032 18.1047C15.3098 18.1047 14.5312 17.5603 14.5303 16.8635C14.5294 16.1667 15.3075 15.6204 16.3007 15.6195C16.7337 15.6112 17.1597 15.7295 17.5264 15.9597C17.6911 16.0456 17.8291 16.175 17.9255 16.3337C18.0218 16.4925 18.0729 16.6746 18.073 16.8603C18.0731 17.046 18.0224 17.2282 17.9263 17.3871C17.8302 17.546 17.6924 17.6755 17.5279 17.7616C17.367 17.8677 17.1913 17.9493 17.0064 18.0037ZM15.7065 16.0643C15.228 16.2076 14.8886 16.5167 14.889 16.8642C14.889 17.3437 15.5367 17.748 16.3028 17.7474C16.6651 17.755 17.0217 17.6569 17.3291 17.465C17.4444 17.4119 17.5421 17.3268 17.6105 17.2199C17.6789 17.1129 17.7152 16.9887 17.7151 16.8617C17.715 16.7348 17.6785 16.6105 17.6099 16.5037C17.5413 16.3969 17.4434 16.3119 17.328 16.2589C17.0203 16.0677 16.6636 15.9702 16.3014 15.9785C16.1 15.9781 15.8996 16.007 15.7065 16.0643Z" fill="#292A2E"/>
<path id="Vector_7" d="M16.6914 17.8918L16.6538 15.8237L16.1395 15.8027L16.1035 17.916L16.6914 17.8918Z" fill="#292A2E"/>
<path id="Vector_8" d="M14.1888 17.3112C14.2796 17.3112 14.3532 17.2376 14.3532 17.1468C14.3532 17.056 14.2796 16.9824 14.1888 16.9824C14.098 16.9824 14.0244 17.056 14.0244 17.1468C14.0244 17.2376 14.098 17.3112 14.1888 17.3112Z" fill="#292A2E"/>
<path id="Vector_9" d="M14.3167 16.4323C14.4075 16.4323 14.4811 16.3587 14.4811 16.2679C14.4811 16.1771 14.4075 16.1035 14.3167 16.1035C14.2259 16.1035 14.1523 16.1771 14.1523 16.2679C14.1523 16.3587 14.2259 16.4323 14.3167 16.4323Z" fill="#292A2E"/>
<path id="Vector_10" d="M68.8816 23.7755C68.8432 23.7755 68.8059 23.7632 68.7751 23.7404C68.7443 23.7176 68.7216 23.6855 68.7104 23.6489C68.1163 21.4308 67.9578 19.1186 68.2437 16.8401C68.7066 13.5093 70.5434 9.13782 76.6657 7.22365C77.5272 6.94667 78.4107 6.74411 79.3068 6.61819C79.5951 4.8172 80.6927 2.86184 83.146 1.51339C88.9774 -1.69068 92.9162 1.18406 92.9552 1.21343C92.9932 1.24193 93.0183 1.28435 93.0251 1.33137C93.0318 1.37838 93.0195 1.42614 92.991 1.46414C92.9625 1.50213 92.9201 1.52725 92.8731 1.53397C92.8261 1.54069 92.7783 1.52845 92.7403 1.49995C92.7031 1.47202 88.9389 -1.26089 83.3189 1.82749C81.0256 3.08766 79.9756 4.89635 79.6771 6.57539C82.3774 6.30945 83.6706 7.21022 84.251 7.89054C84.6102 8.29958 84.8411 8.80529 84.915 9.34466C84.9888 9.88403 84.9023 10.4332 84.6662 10.9238C84.4795 11.3201 84.1769 11.6505 83.7986 11.8713C83.4202 12.0922 82.9838 12.1932 82.5469 12.161C81.0388 12.0725 79.7908 10.804 79.3679 8.92901C79.2282 8.29433 79.1911 7.64138 79.2579 6.99497C78.4151 7.11604 77.5839 7.30719 76.7728 7.5664C72.0013 9.0583 69.2516 12.1956 68.5983 16.8905C68.3183 19.1172 68.4727 21.377 69.0528 23.545C69.061 23.5718 69.0628 23.6001 69.0581 23.6277C69.0533 23.6553 69.0422 23.6814 69.0256 23.7039C69.0089 23.7265 68.9872 23.7448 68.9622 23.7574C68.9372 23.77 68.9096 23.7766 68.8816 23.7766V23.7755ZM79.623 6.9502C79.5484 7.5843 79.5803 8.22642 79.7172 8.85004C80.1042 10.5652 81.2231 11.7244 82.5678 11.8034C82.9343 11.8296 83.3002 11.7445 83.6174 11.5591C83.9347 11.3738 84.1886 11.0969 84.3457 10.7647C84.5503 10.337 84.6246 9.85861 84.5594 9.38899C84.4942 8.91937 84.2923 8.4793 83.9789 8.12352C83.1416 7.14091 81.6135 6.74408 79.623 6.9502Z" fill="#292A2E"/>
<path id="Vector_11" d="M97.1281 3.02279C96.8869 3.02232 96.6507 2.95365 96.4468 2.82471C96.243 2.69577 96.0798 2.51181 95.976 2.29407C95.8722 2.07632 95.8321 1.83368 95.8604 1.59413C95.8886 1.35458 95.984 1.1279 96.1355 0.940248C96.2871 0.752596 96.4886 0.611623 96.7168 0.533602C96.9451 0.45558 97.1907 0.44369 97.4254 0.499304C97.6601 0.554918 97.8743 0.675768 98.0433 0.847907C98.2123 1.02005 98.3291 1.23645 98.3803 1.47216C98.4205 1.65898 98.4183 1.85241 98.374 2.03829C98.3298 2.22417 98.2445 2.3978 98.1244 2.54646C98.0044 2.69512 97.8526 2.81504 97.6802 2.89746C97.5078 2.97988 97.3191 3.0227 97.1281 3.02279ZM97.1307 0.822998C96.9403 0.822956 96.7545 0.881997 96.5989 0.991983C96.4434 1.10197 96.3259 1.25748 96.2624 1.43709C96.199 1.6167 96.1929 1.81156 96.2448 1.99481C96.2968 2.17806 96.4043 2.34069 96.5526 2.46026C96.7009 2.57984 96.8826 2.65048 97.0727 2.66246C97.2628 2.67443 97.4519 2.62715 97.614 2.52712C97.7761 2.42709 97.9032 2.27925 97.9777 2.10397C98.0523 1.92868 98.0706 1.73459 98.0302 1.54844C97.9869 1.34236 97.8737 1.15757 97.7098 1.02537C97.5459 0.893167 97.3413 0.821675 97.1307 0.822998Z" fill="#292A2E"/>
<path id="Vector_12" d="M96.5889 5.94598C96.2607 5.94591 95.945 5.82002 95.7068 5.59421C95.4686 5.36841 95.3261 5.05988 95.3085 4.73214C95.2909 4.4044 95.3996 4.08239 95.6123 3.8324C95.825 3.5824 96.1254 3.42345 96.4517 3.38826C96.778 3.35307 97.1054 3.44432 97.3665 3.64322C97.6276 3.84213 97.8024 4.13355 97.8551 4.45751C97.9078 4.78146 97.8343 5.11329 97.6497 5.38468C97.4652 5.65608 97.1836 5.84639 96.8629 5.91643C96.7729 5.93608 96.6811 5.94598 96.5889 5.94598ZM96.5936 3.74601C96.5274 3.74605 96.4613 3.75319 96.3966 3.76732C96.1679 3.81756 95.9671 3.95356 95.8355 4.14734C95.704 4.34112 95.6517 4.57795 95.6895 4.80909C95.7273 5.04023 95.8522 5.2481 96.0386 5.38993C96.225 5.53177 96.4586 5.59678 96.6914 5.57159C96.9243 5.5464 97.1386 5.43293 97.2904 5.25451C97.4421 5.0761 97.5197 4.84632 97.5071 4.61246C97.4946 4.37859 97.3929 4.15842 97.223 3.99725C97.053 3.83607 96.8278 3.74616 96.5936 3.74601Z" fill="#292A2E"/>
<path id="Vector_13" d="M98.5117 3.54514C98.6246 2.93347 97.9737 2.30062 97.0579 2.13163C96.1421 1.96264 95.3082 2.3215 95.1953 2.93317C95.0824 3.54484 95.7333 4.17769 96.6491 4.34668C97.5649 4.51567 98.3988 4.1568 98.5117 3.54514Z" fill="white"/>
<path id="Vector_14" d="M97.1007 4.56766C96.9386 4.5674 96.7767 4.55241 96.6172 4.52289C96.1669 4.44817 95.7481 4.24366 95.4122 3.93444C95.2652 3.80902 95.1522 3.64856 95.0836 3.46789C95.015 3.28722 94.9931 3.09218 95.0199 2.9008C95.0632 2.71248 95.1533 2.53813 95.2819 2.39384C95.4104 2.24955 95.5733 2.13998 95.7553 2.07525C96.1814 1.91429 96.6433 1.87289 97.0911 1.95552C97.539 2.03816 97.9557 2.24168 98.2963 2.54408C98.4433 2.6695 98.5563 2.82996 98.6249 3.01063C98.6935 3.19129 98.7154 3.38633 98.6886 3.57772C98.6453 3.76603 98.5552 3.94039 98.4266 4.08467C98.2981 4.22896 98.1352 4.33853 97.9532 4.40327C97.683 4.51506 97.3931 4.57098 97.1007 4.56766ZM96.6061 2.26865C96.363 2.26556 96.1217 2.31167 95.8968 2.40422C95.7695 2.44683 95.6549 2.52049 95.5632 2.61855C95.4716 2.7166 95.4059 2.83595 95.3719 2.96581C95.3571 3.09922 95.3759 3.23421 95.4266 3.35852C95.4772 3.48283 95.5581 3.59252 95.6619 3.67764C95.9515 3.93046 96.3039 4.10069 96.682 4.17048C97.0601 4.24027 97.45 4.20705 97.8108 4.0743C97.9381 4.03171 98.0527 3.95804 98.1443 3.85999C98.2359 3.76193 98.3016 3.64257 98.3355 3.51271C98.3502 3.37931 98.3313 3.24435 98.2807 3.12006C98.2301 2.99576 98.1493 2.88606 98.0456 2.80087C97.7605 2.54081 97.4058 2.36949 97.0248 2.30787C96.8867 2.28215 96.7466 2.26903 96.6061 2.26865Z" fill="#292A2E"/>
<path id="Vector_15" d="M96.6462 2.0918L96.2861 4.25255L96.8174 4.37361L97.263 2.18008L96.6462 2.0918Z" fill="#292A2E"/>
<path id="Vector_16" d="M98.805 4.41454C98.9011 4.41454 98.9791 4.33661 98.9791 4.24048C98.9791 4.14434 98.9011 4.06641 98.805 4.06641C98.7089 4.06641 98.6309 4.14434 98.6309 4.24048C98.6309 4.33661 98.7089 4.41454 98.805 4.41454Z" fill="#292A2E"/>
<path id="Vector_17" d="M99.1086 3.52586C99.2048 3.52586 99.2827 3.44792 99.2827 3.35179C99.2827 3.25566 99.2048 3.17773 99.1086 3.17773C99.0125 3.17773 98.9346 3.25566 98.9346 3.35179C98.9346 3.44792 99.0125 3.52586 99.1086 3.52586Z" fill="#292A2E"/>
<path id="Vector_18" d="M99.4709 35.8698V102.755C99.4709 103.518 99.1677 104.25 98.628 104.79C98.0884 105.329 97.3564 105.633 96.5933 105.633H12.0378C11.2746 105.633 10.5426 105.329 10.003 104.79C9.46333 104.25 9.16016 103.518 9.16016 102.755V48.9282C9.1602 48.165 9.46339 47.4331 10.003 46.8935C10.5427 46.3538 11.2746 46.0506 12.0378 46.0506H62.7557C63.5189 46.0506 64.2508 45.7474 64.7905 45.2077C65.3302 44.6681 65.6333 43.9362 65.6333 43.173V35.8698C65.6333 35.1066 65.9365 34.3747 66.4762 33.835C67.0158 33.2954 67.7478 32.9922 68.5109 32.9922H96.5933C97.3564 32.9922 98.0884 33.2954 98.628 33.835C99.1677 34.3747 99.4709 35.1066 99.4709 35.8698Z" fill="#E2E2E2"/>
<path id="Vector_19" d="M96.5936 105.811H12.0383C11.2279 105.81 10.451 105.488 9.8779 104.915C9.30483 104.342 8.98244 103.565 8.98145 102.755V48.9276C8.98244 48.1172 9.30483 47.3403 9.8779 46.7673C10.451 46.1943 11.2279 45.872 12.0383 45.8711H62.7563C63.4718 45.8702 64.1577 45.5856 64.6636 45.0797C65.1695 44.5737 65.454 43.8878 65.4548 43.1723V35.8692C65.4557 35.0588 65.778 34.2819 66.351 33.7088C66.924 33.1358 67.7009 32.8134 68.5113 32.8125H96.5936C97.404 32.8134 98.181 33.1357 98.754 33.7088C99.3271 34.2818 99.6494 35.0588 99.6503 35.8692V102.755C99.6494 103.565 99.327 104.342 98.754 104.915C98.1809 105.488 97.404 105.81 96.5936 105.811ZM12.0383 46.2292C11.3229 46.23 10.6369 46.5145 10.131 47.0204C9.62507 47.5262 9.34046 48.2121 9.3396 48.9276V102.755C9.34041 103.47 9.625 104.156 10.1309 104.662C10.6369 105.168 11.3228 105.453 12.0383 105.453H96.5936C97.3091 105.453 97.995 105.168 98.5009 104.662C99.0068 104.156 99.2914 103.47 99.2922 102.755V35.8692C99.2914 35.1537 99.0068 34.4678 98.5009 33.9619C97.995 33.456 97.3091 33.1715 96.5936 33.1707H68.5113C67.7959 33.1715 67.11 33.4561 66.6042 33.962C66.0983 34.4679 65.8138 35.1538 65.813 35.8692V43.1718C65.8121 43.9822 65.4897 44.7592 64.9167 45.3323C64.3437 45.9054 63.5667 46.2277 62.7563 46.2287L12.0383 46.2292Z" fill="#BDBDBD"/>
<path id="Vector_20" d="M104.843 35.8698V102.755C104.843 103.518 104.54 104.25 104.001 104.79C103.461 105.329 102.729 105.633 101.966 105.633H17.4098C16.6466 105.633 15.9147 105.329 15.375 104.79C14.8354 104.25 14.5322 103.518 14.5322 102.755V48.9282C14.5323 48.165 14.8355 47.4331 15.3751 46.8935C15.9147 46.3538 16.6466 46.0506 17.4098 46.0506H68.1278C68.891 46.0506 69.6229 45.7474 70.1626 45.2077C70.7022 44.6681 71.0054 43.9362 71.0054 43.173V35.8698C71.0054 35.1066 71.3086 34.3747 71.8482 33.835C72.3879 33.2954 73.1198 32.9922 73.883 32.9922H101.966C102.729 32.9922 103.461 33.2954 104.001 33.835C104.54 34.3747 104.843 35.1066 104.843 35.8698Z" fill="white"/>
<path id="Vector_21" d="M101.966 105.811H17.4104C16.6 105.81 15.823 105.488 15.25 104.915C14.6769 104.342 14.3545 103.565 14.3535 102.755V48.9276C14.3545 48.1172 14.6769 47.3403 15.25 46.7673C15.823 46.1943 16.6 45.872 17.4104 45.8711H68.1283C68.8438 45.8702 69.5297 45.5856 70.0356 45.0797C70.5415 44.5737 70.8261 43.8878 70.8269 43.1723V35.8692C70.8278 35.0588 71.1501 34.2819 71.7231 33.7088C72.2961 33.1358 73.073 32.8134 73.8834 32.8125H101.966C102.776 32.8134 103.553 33.1357 104.126 33.7088C104.699 34.2818 105.021 35.0588 105.022 35.8692V102.755C105.021 103.565 104.699 104.342 104.126 104.915C103.553 105.488 102.776 105.81 101.966 105.811ZM17.4104 46.2292C16.6949 46.23 16.009 46.5145 15.5031 47.0204C14.9971 47.5262 14.7125 48.2121 14.7117 48.9276V102.755C14.7125 103.47 14.9971 104.156 15.503 104.662C16.0089 105.168 16.6949 105.453 17.4104 105.453H101.966C102.681 105.453 103.367 105.168 103.873 104.662C104.379 104.156 104.663 103.47 104.664 102.755V35.8692C104.663 35.1537 104.379 34.4678 103.873 33.9619C103.367 33.456 102.681 33.1715 101.966 33.1707H73.8834C73.168 33.1715 72.4821 33.4561 71.9762 33.962C71.4704 34.4679 71.1858 35.1538 71.185 35.8692V43.1718C71.1841 43.9822 70.8618 44.7592 70.2888 45.3323C69.7157 45.9054 68.9388 46.2277 68.1283 46.2287L17.4104 46.2292Z" fill="#9C9C9C"/>
<path id="Vector_22" d="M52.8649 69.6108C53.9639 69.6108 54.8548 68.7199 54.8548 67.6209C54.8548 66.5219 53.9639 65.6309 52.8649 65.6309C51.7659 65.6309 50.875 66.5219 50.875 67.6209C50.875 68.7199 51.7659 69.6108 52.8649 69.6108Z" fill="#292A2E"/>
<path id="Vector_23" d="M66.5094 69.6108C67.6084 69.6108 68.4994 68.7199 68.4994 67.6209C68.4994 66.5219 67.6084 65.6309 66.5094 65.6309C65.4104 65.6309 64.5195 66.5219 64.5195 67.6209C64.5195 68.7199 65.4104 69.6108 66.5094 69.6108Z" fill="#292A2E"/>
<path id="Vector_24" d="M62.3555 72.8145H57.0195V73.1726H62.3555V72.8145Z" fill="#262626"/>
<g id="Group_2" opacity="0.1">
<path id="Vector_25" opacity="0.1" d="M50.8133 73.3138C51.7937 73.3138 52.5885 72.8955 52.5885 72.3796C52.5885 71.8636 51.7937 71.4453 50.8133 71.4453C49.8329 71.4453 49.0381 71.8636 49.0381 72.3796C49.0381 72.8955 49.8329 73.3138 50.8133 73.3138Z" fill="#367CFF"/>
<path id="Vector_26" opacity="0.1" d="M68.5643 73.3138C69.5447 73.3138 70.3395 72.8955 70.3395 72.3796C70.3395 71.8636 69.5447 71.4453 68.5643 71.4453C67.5839 71.4453 66.7891 71.8636 66.7891 72.3796C66.7891 72.8955 67.5839 73.3138 68.5643 73.3138Z" fill="#367CFF"/>
</g>
</g>
</svg>
